<svg width="80" height="80" viewBox="0 0 80 80" fill="none" xmlns="http://www.w3.org/2000/svg">
<g clip-path="url(#clip0_145_39)">
<path d="M40.0001 20C23.6715 20 7.14282 16.5653 7.14282 9.99998C7.14282 3.43471 23.6714 0 40.0001 0C56.3287 0 72.8573 3.43471 72.8573 9.99998C72.8573 16.5653 56.3286 20 40.0001 20ZM40.0001 2.85714C21.6868 2.85714 10.0001 7.08705 10.0001 9.99998C10.0001 12.9129 21.6868 17.1428 40.0001 17.1428C58.3133 17.1428 70 12.9129 70 9.99998C70 7.08705 58.3133 2.85714 40.0001 2.85714ZM40.0001 80C23.6715 80 7.14282 76.5653 7.14282 70V50.0001C7.14282 49.2111 7.78245 48.5715 8.57139 48.5715C9.36033 48.5715 9.99996 49.2111 9.99996 50.0001V70C9.99996 72.9129 21.6866 77.1429 39.9999 77.1429C58.3132 77.1429 69.9999 72.9129 69.9999 70V50.0001C69.9999 49.2111 70.6395 48.5715 71.4284 48.5715C72.2174 48.5715 72.857 49.2111 72.857 50.0001V70C72.8571 76.5653 56.3286 80 40.0001 80Z" fill="white"/>
<path d="M40 60.0001C23.6715 60.0001 7.14282 56.5654 7.14282 50.0001V30C7.14282 29.211 7.78245 28.5714 8.57139 28.5714C9.36033 28.5714 9.99996 29.211 9.99996 30V49.9999C9.99996 52.9129 21.6866 57.1428 39.9999 57.1428C58.3132 57.1428 69.9998 52.9129 69.9998 49.9999V30C69.9998 29.211 70.6395 28.5714 71.4284 28.5714C72.2174 28.5714 72.857 29.211 72.857 30V49.9999C72.8571 56.5654 56.3286 60.0001 40 60.0001Z" fill="white"/>
<path d="M40 40.0002C23.6715 40.0002 7.14282 36.5655 7.14282 30.0002V10.0001C7.14282 9.21116 7.78245 8.57153 8.57139 8.57153C9.36033 8.57153 9.99996 9.21116 9.99996 10.0001V30.0001C9.99996 32.9131 21.6866 37.1429 39.9999 37.1429C58.3132 37.1429 69.9998 32.913 69.9998 30.0001V10.0001C69.9998 9.21116 70.6395 8.57153 71.4284 8.57153C72.2174 8.57153 72.857 9.21116 72.857 10.0001V30.0001C72.8571 36.5655 56.3286 40.0002 40 40.0002Z" fill="white"/>
<path d="M65.7142 25.7143C66.5032 25.7143 67.1428 25.0747 67.1428 24.2857C67.1428 23.4968 66.5032 22.8572 65.7142 22.8572C64.9252 22.8572 64.2856 23.4968 64.2856 24.2857C64.2856 25.0747 64.9252 25.7143 65.7142 25.7143Z" fill="white"/>
<path d="M65.7142 45.7143C66.5032 45.7143 67.1428 45.0747 67.1428 44.2857C67.1428 43.4968 66.5032 42.8572 65.7142 42.8572C64.9252 42.8572 64.2856 43.4968 64.2856 44.2857C64.2856 45.0747 64.9252 45.7143 65.7142 45.7143Z" fill="white"/>
<path d="M65.7142 65.7143C66.5032 65.7143 67.1428 65.0747 67.1428 64.2857C67.1428 63.4968 66.5032 62.8572 65.7142 62.8572C64.9252 62.8572 64.2856 63.4968 64.2856 64.2857C64.2856 65.0747 64.9252 65.7143 65.7142 65.7143Z" fill="white"/>
</g>
<defs>
<clipPath id="clip0_145_39">
<rect width="80" height="80" fill="white"/>
</clipPath>
</defs>
</svg>
