<svg width="80" height="80" viewBox="0 0 80 80" fill="none" xmlns="http://www.w3.org/2000/svg">
<g clip-path="url(#clip0_118_331)">
<path d="M77.8523 31.9795H74.8247C73.5369 28.8917 70.9562 26.5505 66.7858 25.8842C63.6177 25.3776 55.302 25.2681 55.302 25.2681H24.698C24.698 25.2681 16.3823 25.3776 13.2145 25.8842C9.04403 26.5505 6.46336 28.8917 5.17557 31.9795H2.14765C1.57806 31.9795 1.0318 32.2057 0.629032 32.6085C0.22627 33.0113 0 33.5575 0 34.1271C0 34.6967 0.22627 35.243 0.629032 35.6457C1.0318 36.0485 1.57806 36.2748 2.14765 36.2748H4.18282C3.91168 40.1846 5.03893 44.3894 6.93208 47.5113C11.6456 55.2861 21.7576 58.5881 32.0102 48.0452C35.2647 44.6995 36.8489 41.9005 37.6225 39.085C37.6225 39.085 37.7562 38.423 37.8271 38.2018C38.1208 37.2836 38.9737 36.543 39.9777 36.543H40.0223C41.0019 36.543 41.8379 37.2611 42.1506 38.1462C42.2354 38.3873 42.3675 39.0299 42.3713 39.0447C43.1428 41.8673 44.7272 44.7175 47.9898 48.0716C58.2424 58.6138 68.3544 55.275 73.0679 47.5008C74.9689 44.3655 75.9589 40.0187 75.7721 36.2748H77.8523C78.4219 36.2748 78.9682 36.0485 79.371 35.6457C79.7737 35.243 80 34.6967 80 34.1271C80 33.5575 79.7737 33.0113 79.371 32.6085C78.9682 32.2057 78.4219 31.9795 77.8523 31.9795ZM42.1799 32.6291C41.5039 32.3926 40.778 32.2479 40.0223 32.2479H39.9777C39.222 32.2479 38.4961 32.3926 37.8201 32.6291C37.5404 31.4871 37.0752 30.6372 36.4376 29.5634H43.5627C42.9248 30.6372 42.4596 31.4871 42.1799 32.6291Z" fill="white"/>
</g>
<defs>
<clipPath id="clip0_118_331">
<rect width="80" height="80" fill="white"/>
</clipPath>
</defs>
</svg>
