<svg width="80" height="80" viewBox="0 0 80 80" fill="none" xmlns="http://www.w3.org/2000/svg">
<path d="M78.6667 18.6667V61.3333C78.6667 63.1014 77.9643 64.7971 76.7141 66.0474C75.4638 67.2976 73.7681 68 72 68H8.00001C7.12453 68 6.25762 67.8276 5.44879 67.4925C4.63995 67.1575 3.90502 66.6664 3.28597 66.0474C2.03572 64.7971 1.33334 63.1014 1.33334 61.3333V52C1.33334 51.6464 1.47382 51.3072 1.72387 51.0572C1.97392 50.8071 2.31305 50.6667 2.66668 50.6667H5.33334C5.68697 50.6667 6.0261 50.8071 6.27615 51.0572C6.5262 51.3072 6.66668 51.6464 6.66668 52V61.3333C6.66668 61.687 6.80715 62.0261 7.0572 62.2761C7.30725 62.5262 7.64639 62.6667 8.00001 62.6667H72C72.3536 62.6667 72.6928 62.5262 72.9428 62.2761C73.1929 62.0261 73.3333 61.687 73.3333 61.3333V18.6667C73.3333 18.313 73.1929 17.9739 72.9428 17.7239C72.6928 17.4738 72.3536 17.3333 72 17.3333H8.00001C7.64639 17.3333 7.30725 17.4738 7.0572 17.7239C6.80715 17.9739 6.66668 18.313 6.66668 18.6667V28C6.66668 28.3536 6.5262 28.6928 6.27615 28.9428C6.0261 29.1929 5.68697 29.3333 5.33334 29.3333H2.66668C2.31305 29.3333 1.97392 29.1929 1.72387 28.9428C1.47382 28.6928 1.33334 28.3536 1.33334 28V18.6667C1.33334 16.8986 2.03572 15.2029 3.28597 13.9526C4.53621 12.7024 6.2319 12 8.00001 12H72C73.7681 12 75.4638 12.7024 76.7141 13.9526C77.9643 15.2029 78.6667 16.8986 78.6667 18.6667Z" fill="white"/>
<path d="M4.00001 34.6667H28V29.4373C28.024 28.8955 28.1989 28.3711 28.505 27.9234C28.8111 27.4756 29.2362 27.1223 29.7323 26.9033C30.2285 26.6842 30.776 26.6082 31.3131 26.6837C31.8502 26.7592 32.3555 26.9833 32.772 27.3307L45.6507 37.8933C45.9687 38.1447 46.2257 38.4648 46.4023 38.8297C46.579 39.1945 46.6708 39.5946 46.6708 40C46.6708 40.4054 46.579 40.8055 46.4023 41.1703C46.2257 41.5352 45.9687 41.8553 45.6507 42.1067L32.768 52.6667C32.3516 53.0128 31.8469 53.2358 31.3106 53.3108C30.7744 53.3858 30.2279 53.3097 29.7325 53.0911C29.2371 52.8725 28.8125 52.5201 28.5065 52.0734C28.2004 51.6267 28.025 51.1036 28 50.5627V45.3333H4.00001C3.29277 45.3333 2.61449 45.0524 2.11439 44.5523C1.6143 44.0522 1.33334 43.3739 1.33334 42.6667V37.3333C1.33334 36.6261 1.6143 35.9478 2.11439 35.4477C2.61449 34.9476 3.29277 34.6667 4.00001 34.6667Z" fill="white"/>
</svg>
