<svg width="88" height="80" viewBox="0 0 88 80" fill="none" xmlns="http://www.w3.org/2000/svg">
<path d="M80.0648 5.45451H7.93503C6.65665 5.45451 5.61637 6.49479 5.61637 7.77335V48.3461C5.61637 48.7211 5.76536 49.0808 6.03056 49.346C6.29577 49.6112 6.65546 49.7602 7.03051 49.7602H80.9697C81.3447 49.7602 81.7044 49.6112 81.9696 49.346C82.2348 49.0808 82.3838 48.7211 82.3838 48.3461V7.77335C82.3838 6.49479 81.3435 5.45451 80.0648 5.45451ZM34.1601 46.9319H31.4626V39.1591H34.1601V46.9319ZM45.9296 46.9319H43.2321V29.8364H45.9296V46.9319ZM57.6991 46.9319H55.0017V33.6049H57.6991V46.9319ZM69.4687 46.9319H66.7712V22.5879H69.4687V46.9319ZM79.5555 46.9319H72.2969V21.1737C72.2969 20.7987 72.1479 20.439 71.8827 20.1738C71.6175 19.9086 71.2578 19.7596 70.8828 19.7596H65.3571C64.982 19.7596 64.6223 19.9086 64.3571 20.1738C64.0919 20.439 63.9429 20.7987 63.9429 21.1737V46.9319H60.5274V32.1908C60.5274 31.8157 60.3784 31.456 60.1132 31.1908C59.848 30.9256 59.4883 30.7766 59.1133 30.7766H53.5875C53.2125 30.7766 52.8528 30.9256 52.5876 31.1908C52.3224 31.456 52.1734 31.8157 52.1734 32.1908V46.9319H48.7579V28.4223C48.7579 28.0472 48.6089 27.6875 48.3437 27.4223C48.0785 27.1571 47.7188 27.0081 47.3437 27.0081H41.818C41.4429 27.0081 41.0832 27.1571 40.818 27.4223C40.5528 27.6875 40.4039 28.0472 40.4039 28.4223V46.9319H36.9883V37.745C36.9883 37.3699 36.8394 37.0102 36.5742 36.745C36.309 36.4798 35.9493 36.3308 35.5742 36.3308H30.0485C29.6734 36.3308 29.3137 36.4798 29.0485 36.745C28.7833 37.0102 28.6343 37.3699 28.6343 37.745V46.9319H8.44447V8.28279H79.5554V46.9319H79.5555ZM79.9015 0H8.09854C3.72213 0 0.161682 3.56045 0.161682 7.93686V52.8107C0.161682 57.1871 3.72231 60.7475 8.09854 60.7475H29.2525V68.2828H20.7379C16.891 68.2828 13.7613 70.911 13.7613 74.1414V78.5859C13.7613 78.9609 13.9103 79.3206 14.1755 79.5858C14.4407 79.851 14.8004 80 15.1754 80H72.8244C73.1995 80 73.5592 79.851 73.8244 79.5858C74.0896 79.3206 74.2386 78.9609 74.2386 78.5859V74.1414C74.2386 70.911 71.1089 68.2828 67.2619 68.2828H58.7474V60.7477H79.9015C84.2779 60.7477 87.8383 57.1873 87.8383 52.8109V7.93703C87.8383 3.56045 84.2777 0 79.9015 0ZM71.4103 74.1414V77.1717H16.5897V74.1414C16.5897 72.4989 18.4895 71.1111 20.7381 71.1111H67.2621C69.5106 71.1111 71.4103 72.4987 71.4103 74.1414ZM55.9193 68.2828H32.0808V60.7477H55.9191L55.9193 68.2828ZM85.0101 52.8109C85.0101 55.6278 82.7183 57.9194 79.9015 57.9194H8.09854C5.28157 57.9194 2.98996 55.6277 2.98996 52.8109V7.93703C2.98996 5.12007 5.28175 2.82846 8.09854 2.82846H79.9015C82.7184 2.82846 85.0101 5.12025 85.0101 7.93703V52.8109ZM12.0569 26.6093L13.2068 27.052C13.3966 27.6558 13.6395 28.2418 13.9326 28.8028L13.4321 29.9296C13.3162 30.1907 13.282 30.4809 13.3343 30.7619C13.3865 31.0429 13.5226 31.3014 13.7247 31.5035L15.8208 33.5996C16.0228 33.8017 16.2814 33.9378 16.5623 33.99C16.8432 34.0422 17.1334 34.0081 17.3946 33.8922L18.5218 33.3914C19.0826 33.6843 19.6682 33.9271 20.2718 34.1168L20.7146 35.267C20.8172 35.5338 20.9983 35.7632 21.2339 35.925C21.4695 36.0868 21.7486 36.1733 22.0344 36.1733H24.9987C25.2845 36.1733 25.5636 36.0868 25.7992 35.925C26.0348 35.7633 26.2158 35.5339 26.3185 35.2672L26.7611 34.1174C27.365 33.9276 27.9509 33.6847 28.512 33.3915L29.6387 33.892C29.8999 34.0079 30.1901 34.0421 30.471 33.9899C30.752 33.9377 31.0105 33.8016 31.2127 33.5996L33.3086 31.5035C33.5106 31.3014 33.6467 31.0428 33.6989 30.7619C33.7511 30.4809 33.717 30.1907 33.601 29.9296L33.1002 28.8023C33.1751 28.6588 33.2465 28.5136 33.3148 28.3671C33.4404 28.3204 33.5588 28.2559 33.6662 28.1757L44.7792 19.7375L55.7916 24.4729C56.0411 24.5803 56.3162 24.6136 56.584 24.5687C56.8519 24.5238 57.1011 24.4027 57.3019 24.2198L64.8071 17.3918L64.7854 17.5014C64.7448 17.7065 64.7502 17.9181 64.8013 18.1209C64.8523 18.3236 64.9477 18.5126 65.0805 18.6741C65.2133 18.8356 65.3803 18.9656 65.5695 19.0548C65.7586 19.144 65.9651 19.1901 66.1742 19.1899C66.5014 19.1894 66.8183 19.0755 67.071 18.8676C67.3237 18.6597 67.4964 18.3707 67.5599 18.0497L68.4126 13.7359C68.4533 13.5305 68.4479 13.3186 68.3966 13.1156C68.3454 12.9126 68.2497 12.7235 68.1164 12.562C67.8465 12.2348 67.4503 12.0506 67.0203 12.0476L62.623 12.0637C62.2518 12.0702 61.898 12.2223 61.6381 12.4874C61.3781 12.7524 61.2327 13.109 61.2334 13.4802C61.234 13.8515 61.3806 14.2076 61.6415 14.4717C61.9024 14.7358 62.2567 14.8868 62.6279 14.892H62.6332L63.3548 14.8893L56.0722 21.5149L45.1389 16.8136C44.909 16.7147 44.6571 16.6787 44.4087 16.709C44.1603 16.7394 43.9244 16.8351 43.7251 16.9865L35.8821 22.9418V22.3254C35.8821 22.0396 35.7956 21.7605 35.6338 21.5249C35.4721 21.2893 35.2427 21.1083 34.976 21.0056L33.8262 20.563C33.6364 19.9591 33.3935 19.3732 33.1004 18.8121L33.6008 17.6854C33.7168 17.4242 33.7509 17.134 33.6988 16.8531C33.6466 16.5721 33.5105 16.3136 33.3084 16.1115L31.2125 14.0154C31.0104 13.8132 30.7519 13.6771 30.4709 13.6249C30.1899 13.5727 29.8997 13.6068 29.6385 13.7228L28.5111 14.2236C27.9503 13.9306 27.3647 13.6879 26.7611 13.4981L26.3183 12.3477C26.2156 12.081 26.0346 11.8517 25.799 11.69C25.5634 11.5282 25.2843 11.4416 24.9986 11.4416H22.0342C21.7484 11.4416 21.4693 11.5282 21.2337 11.69C20.9982 11.8517 20.8171 12.081 20.7144 12.3477L20.2716 13.4981C19.6681 13.6879 19.0824 13.9307 18.5216 14.2236L17.3942 13.7228C17.133 13.6068 16.8428 13.5727 16.5619 13.6249C16.2809 13.6771 16.0223 13.8133 15.8203 14.0154L13.7243 16.1115C13.5223 16.3136 13.3862 16.5721 13.334 16.8531C13.2818 17.134 13.316 17.4242 13.432 17.6854L13.9326 18.8125C13.6396 19.3734 13.3968 19.9591 13.2069 20.5628L12.0569 21.0055C11.7902 21.1081 11.5608 21.2891 11.399 21.5247C11.2372 21.7603 11.1506 22.0394 11.1506 22.3252V25.2896C11.1507 25.5754 11.2373 25.8544 11.3991 26.09C11.5609 26.3256 11.7902 26.5066 12.0569 26.6093ZM13.9791 23.2962L14.8876 22.9465C15.102 22.864 15.2931 22.7305 15.4443 22.5576C15.5955 22.3846 15.7023 22.1775 15.7554 21.954C15.9507 21.1333 16.2759 20.349 16.7186 19.6309C16.839 19.4353 16.9099 19.2133 16.9253 18.9841C16.9407 18.755 16.9 18.5255 16.8068 18.3156L16.4112 17.4247L17.1342 16.7017L18.0253 17.0975C18.2352 17.1907 18.4647 17.2313 18.6939 17.2159C18.923 17.2005 19.145 17.1295 19.3406 17.0091C20.0587 16.5665 20.8429 16.2414 21.6635 16.0461C21.8869 15.9929 22.094 15.8861 22.2669 15.7349C22.4398 15.5837 22.5732 15.3926 22.6557 15.1783L23.0055 14.2696H24.0278L24.3776 15.1783C24.4601 15.3926 24.5936 15.5836 24.7664 15.7348C24.9393 15.886 25.1464 15.9928 25.3698 16.0461C26.1904 16.2414 26.9746 16.5665 27.6927 17.0091C27.8883 17.1295 28.1103 17.2005 28.3394 17.2159C28.5686 17.2313 28.7981 17.1906 29.008 17.0975L29.8991 16.7017L30.6221 17.4247L30.2266 18.3152C30.1334 18.5252 30.0928 18.7547 30.1082 18.9839C30.1236 19.2131 30.1946 19.4351 30.315 19.6307C30.7578 20.3489 31.083 21.1332 31.2782 21.954C31.3313 22.1774 31.4381 22.3846 31.5893 22.5575C31.7404 22.7304 31.9314 22.8639 32.1458 22.9464L33.0542 23.296V24.3184L32.1455 24.6682C31.9311 24.7508 31.7401 24.8842 31.5889 25.0571C31.4377 25.23 31.3309 25.4372 31.2777 25.6606C31.0824 26.4813 30.7572 27.2654 30.3145 27.9835C30.1941 28.1792 30.1232 28.4012 30.1078 28.6304C30.0924 28.8596 30.1331 29.0891 30.2263 29.299L30.6221 30.1901L29.8993 30.9129L29.0087 30.5175C28.7988 30.4242 28.5693 30.3835 28.3401 30.3989C28.1108 30.4142 27.8888 30.4852 27.6932 30.6057C26.975 31.0485 26.1906 31.3737 25.3698 31.5689C25.1463 31.622 24.9392 31.7288 24.7663 31.88C24.5934 32.0312 24.4599 32.2223 24.3774 32.4366L24.0276 33.3451H23.0053L22.6555 32.4365C22.573 32.2221 22.4396 32.031 22.2666 31.8798C22.0937 31.7286 21.8866 31.6217 21.6631 31.5685C20.8425 31.3732 20.0583 31.0481 19.3402 30.6055C19.1446 30.4851 18.9227 30.4142 18.6935 30.3988C18.4643 30.3834 18.2348 30.4241 18.0249 30.5173L17.1338 30.9131L16.4109 30.1901L16.8063 29.2996C16.8995 29.0896 16.9402 28.8601 16.9248 28.6309C16.9094 28.4017 16.8384 28.1797 16.7179 27.9841C16.2751 27.2658 15.9499 26.4813 15.7547 25.6604C15.7016 25.437 15.5948 25.2299 15.4436 25.057C15.2925 24.8842 15.1014 24.7507 14.8871 24.6682L13.9787 24.3186V23.2962H13.9791ZM23.5167 30.3913C27.147 30.3913 30.1004 27.4378 30.1004 23.8074C30.1004 20.1769 27.147 17.2235 23.5167 17.2235C19.8865 17.2235 16.933 20.1769 16.933 23.8074C16.933 27.4378 19.8865 30.3913 23.5167 30.3913ZM23.5167 20.0518C25.5876 20.0518 27.2721 21.7366 27.2721 23.8074C27.2721 25.8782 25.5876 27.563 23.5167 27.563C21.4459 27.563 19.7613 25.8782 19.7613 23.8074C19.7613 21.7366 21.4459 20.0518 23.5167 20.0518Z" fill="white"/>
</svg>
