<svg width="80" height="80" viewBox="0 0 80 80" fill="none" xmlns="http://www.w3.org/2000/svg">
<g clip-path="url(#clip0_118_334)">
<path d="M30.7719 29.7468C24.6183 28.4419 18.1082 28.2605 11.4226 29.2077C9.99057 29.4106 8.73503 30.1663 7.88706 31.3359C7.04296 32.5 6.71624 33.9203 6.96701 35.3348C7.07248 35.932 7.18409 36.5281 7.30182 37.123C7.78989 39.5762 8.31938 41.7876 8.87566 43.6961C9.72464 46.6087 12.0688 48.788 14.9955 49.3838L15.1971 49.4244C16.3003 49.6418 17.4219 49.7516 18.5462 49.7523C25.9988 49.7523 32.6209 44.9838 35.0245 37.8864L35.1705 37.4548C35.4384 36.6616 35.5355 35.8207 35.4554 34.9874C35.3752 34.154 35.1197 33.347 34.7055 32.6194C34.2897 31.8901 33.7241 31.2572 33.0462 30.762C32.3682 30.2669 31.5931 29.9209 30.7719 29.7468ZM33.5724 36.9243L33.4296 37.346C31.2577 43.7591 25.2766 48.068 18.5464 48.068C17.5324 48.0674 16.5209 47.9684 15.526 47.7724L15.3297 47.733C13.0195 47.2628 11.1659 45.5352 10.4926 43.2247C9.94998 41.363 9.43227 39.1996 8.95364 36.7943C8.83812 36.211 8.7287 35.6265 8.6254 35.0409C8.45513 34.0801 8.6771 33.1154 9.25055 32.3245C9.82788 31.5281 10.6833 31.0136 11.6587 30.8753C18.1488 29.9559 24.4618 30.1306 30.4224 31.3944C31.011 31.5192 31.5666 31.7672 32.0527 32.122C32.5387 32.4769 32.9442 32.9305 33.2425 33.4531C33.5396 33.9755 33.7226 34.555 33.7794 35.1533C33.8363 35.7516 33.7658 36.3552 33.5724 36.9243Z" fill="white"/>
<path d="M30.2407 32.2519C26.8717 31.5375 23.3319 31.1752 19.7199 31.1752C18.7625 31.1752 17.7826 31.2015 16.8077 31.2532C16.6973 31.259 16.5891 31.2866 16.4893 31.3343C16.3895 31.3819 16.3001 31.4488 16.2262 31.531C16.1522 31.6133 16.0952 31.7093 16.0584 31.8135C16.0215 31.9178 16.0056 32.0283 16.0114 32.1387C16.0235 32.3616 16.1235 32.5707 16.2896 32.7199C16.4556 32.8692 16.674 32.9465 16.897 32.935C17.8371 32.8849 18.7784 32.8597 19.7199 32.8594C23.2147 32.8594 26.6367 33.2093 29.8914 33.8993C30.3744 34.0017 30.7744 34.2934 31.0179 34.7207C31.1369 34.927 31.2103 35.1564 31.2331 35.3935C31.2559 35.6306 31.2275 35.8698 31.1499 36.095C31.1071 36.2217 31.095 36.3568 31.1147 36.4891C31.1344 36.6214 31.1854 36.7471 31.2634 36.8558C31.3413 36.9645 31.4441 37.053 31.5631 37.1141C31.6821 37.1752 31.814 37.207 31.9477 37.207C32.1238 37.2069 32.2955 37.1516 32.4386 37.0489C32.5816 36.9462 32.6889 36.8012 32.7453 36.6344C33.0579 35.7101 32.9641 34.7345 32.4813 33.8869C31.9962 33.036 31.2005 32.4553 30.2407 32.2519ZM72.698 37.123C72.8058 36.5807 72.9185 35.9791 73.0327 35.3347C73.2834 33.9202 72.9567 32.5 72.1128 31.336C71.2648 30.1664 70.0091 29.4106 68.5771 29.2078C61.8915 28.2608 55.3814 28.4422 49.228 29.7469C48.4067 29.9211 47.6316 30.2671 46.9536 30.7622C46.2756 31.2572 45.71 31.8902 45.294 32.6194C44.8799 33.3469 44.6243 34.1538 44.5442 34.9871C44.464 35.8204 44.561 36.6613 44.8288 37.4544L44.975 37.8864C47.3785 44.9838 54.0007 49.7523 61.4533 49.7523C62.5707 49.7523 63.6974 49.642 64.8054 49.4237L65.0058 49.3834C67.9305 48.7881 70.2749 46.6088 71.1237 43.6962C71.68 41.7889 72.2096 39.5775 72.698 37.123ZM69.5072 43.2248C68.8337 45.5353 66.9803 47.2628 64.6722 47.7326L64.4768 47.7719C63.481 47.9682 62.4684 48.0675 61.4534 48.0681C54.7232 48.0681 48.7421 43.7594 46.5702 37.3461L46.4245 36.9151C46.2327 36.3472 46.1632 35.7451 46.2205 35.1484C46.2779 34.5517 46.4609 33.9738 46.7575 33.4529C47.0558 32.9302 47.4613 32.4766 47.9473 32.1218C48.4333 31.767 48.9889 31.519 49.5776 31.3941C53.0317 30.6619 56.6032 30.2952 60.2597 30.2952C62.9133 30.2952 65.6119 30.4884 68.3411 30.8751C69.3167 31.0134 70.1721 31.528 70.7495 32.3243C71.3229 33.1152 71.545 34.0799 71.3748 35.0403C71.2713 35.626 71.1618 36.2105 71.0464 36.7939C70.5674 39.2009 70.0495 41.3643 69.5072 43.2248Z" fill="white"/>
<path d="M68.2182 31.7429C65.5577 31.3662 62.887 31.175 60.2799 31.175C59.2699 31.175 58.252 31.2038 57.2545 31.2606C57.1441 31.2669 57.036 31.2948 56.9364 31.3429C56.8368 31.391 56.7476 31.4582 56.674 31.5407C56.6004 31.6232 56.5437 31.7194 56.5073 31.8238C56.4708 31.9282 56.4553 32.0388 56.4616 32.1492C56.4677 32.2596 56.4956 32.3678 56.5436 32.4674C56.5916 32.5671 56.6588 32.6563 56.7414 32.73C56.8239 32.8036 56.9202 32.8603 57.0246 32.8967C57.1291 32.933 57.2397 32.9485 57.3502 32.9421C58.3258 32.8868 59.3027 32.8592 60.2799 32.8592C62.8082 32.8592 65.3994 33.0446 67.9819 33.4104C68.1198 33.4293 68.2525 33.476 68.3719 33.5477C68.4912 33.6193 68.5948 33.7145 68.6763 33.8274C68.8406 34.0541 68.9018 34.319 68.8533 34.5935C68.8164 34.8125 68.8676 35.0372 68.9955 35.2186C69.1235 35.4001 69.318 35.5236 69.5366 35.5624C69.7553 35.6012 69.9804 35.552 70.1629 35.4256C70.3455 35.2993 70.4708 35.1059 70.5115 34.8876C70.64 34.1631 70.4724 33.4355 70.0397 32.839C69.6032 32.2366 68.9563 31.8474 68.2182 31.7429Z" fill="white"/>
<path d="M79.8033 53.1232L73.2689 45.328C73.387 45.0277 73.4915 44.7223 73.5822 44.4126C74.8822 39.953 75.7185 34.9805 76.0037 33.151H77.6688C77.8921 33.151 78.1063 33.0623 78.2642 32.9044C78.4222 32.7465 78.5109 32.5323 78.5109 32.3089V28.2121C78.5109 28.0303 78.4521 27.8534 78.3432 27.7079C78.2344 27.5623 78.0814 27.4558 77.9071 27.4044C62.2665 22.7904 50.2085 25.2924 44.4133 27.1948C41.5262 28.1425 38.474 28.1427 35.5865 27.1948C29.7913 25.2926 17.734 22.7903 2.09273 27.4044C1.9184 27.4558 1.76539 27.5623 1.65657 27.7078C1.54774 27.8534 1.48895 28.0303 1.48896 28.2121V32.3089C1.48896 32.5323 1.57768 32.7465 1.7356 32.9044C1.89352 33.0623 2.1077 33.151 2.33104 33.151H3.99616C4.28129 34.9805 5.11781 39.953 6.41764 44.4128C6.50836 44.7224 6.61288 45.0278 6.73089 45.3281L0.196709 53.1232C0.118526 53.2165 0.0615003 53.3257 0.0295599 53.4431C-0.00238046 53.5606 -0.00847574 53.6836 0.0116941 53.8036C0.0318639 53.9237 0.0778193 54.0379 0.146394 54.1385C0.214968 54.2391 0.304532 54.3236 0.408912 54.3862C1.33755 54.9435 2.36287 55.2146 3.37909 55.2146C4.90493 55.2146 6.40972 54.6024 7.53322 53.4271L10.5952 50.2231C11.7903 51.0497 13.1416 51.6234 14.5662 51.9091L14.7025 51.9362C15.9587 52.1843 17.2361 52.3091 18.5166 52.3091C25.8681 52.3088 32.73 48.1855 36.1921 41.6321L43.3245 40.6442C46.5983 47.768 53.7696 52.3095 61.4836 52.3091C62.745 52.3091 64.0216 52.1877 65.2975 51.9362L65.4159 51.9127C66.8465 51.6266 68.2036 51.0511 69.4036 50.2214L72.4669 53.4269C73.5904 54.6024 75.0951 55.2144 76.6211 55.2144C77.6371 55.2144 78.6626 54.943 79.5913 54.386C79.6956 54.3234 79.7852 54.2389 79.8538 54.1384C79.9224 54.0378 79.9683 53.9236 79.9885 53.8035C80.0086 53.6835 80.0025 53.5605 79.9705 53.4431C79.9386 53.3256 79.8815 53.2165 79.8033 53.1232ZM6.31558 52.2636C5.23065 53.3988 3.6435 53.7912 2.20119 53.3536L7.54501 46.9786C8.02804 47.7769 8.6138 48.5083 9.28727 49.154L6.31558 52.2636ZM37.0339 39.8154C37.1835 39.4504 37.3223 39.081 37.45 38.7077C37.8823 37.4311 38.264 36.2977 38.5501 35.445C38.6519 35.1412 38.8467 34.8771 39.1069 34.6901C39.367 34.503 39.6794 34.4026 39.9998 34.4029C40.3202 34.4026 40.6326 34.503 40.8928 34.6901C41.153 34.8771 41.3477 35.1412 41.4496 35.445C41.8148 36.533 42.1815 37.6205 42.5496 38.7076C42.587 38.8179 42.6288 38.9256 42.6679 39.035L37.0339 39.8154ZM65.0851 50.2615L64.972 50.2839C56.0345 52.0455 47.081 46.8363 44.1449 38.1674C43.7773 37.0818 43.4112 35.9957 43.0465 34.9091C42.8325 34.2707 42.4232 33.7157 41.8765 33.3226C41.3298 32.9295 40.6733 32.7183 40 32.7189C39.3267 32.7183 38.6702 32.9295 38.1235 33.3226C37.5769 33.7156 37.1676 34.2707 36.9537 34.9091C36.5889 35.9957 36.2227 37.0818 35.855 38.1674C32.919 46.8365 23.965 52.0454 15.0279 50.2839L14.8989 50.2582C11.6074 49.5956 8.97721 47.1753 8.03459 43.9416C6.44795 38.4984 5.5636 32.2547 5.55484 32.1922C5.52669 31.9911 5.42678 31.8069 5.27351 31.6736C5.12025 31.5403 4.92397 31.4669 4.72085 31.4669H3.17311V28.8446C18.0811 24.5992 29.5269 26.9781 35.0612 28.795C38.2923 29.8558 41.7079 29.8555 44.9386 28.795C50.4729 26.9784 61.9194 24.5996 76.8267 28.8446V31.4669H75.279C75.0759 31.4669 74.8796 31.5403 74.7263 31.6736C74.5731 31.8069 74.4731 31.9911 74.445 32.1922C74.4362 32.2547 73.5532 38.4942 71.9656 43.9414C71.0223 47.177 68.3856 49.5988 65.0851 50.2615ZM73.6844 52.2636L70.7116 49.1528C71.3852 48.5073 71.9711 47.7761 72.4545 46.9781L77.7988 53.3538C76.3567 53.7913 74.7692 53.3988 73.6844 52.2636Z" fill="white"/>
</g>
<defs>
<clipPath id="clip0_118_334">
<rect width="80" height="80" fill="white"/>
</clipPath>
</defs>
</svg>
