<svg width="80" height="80" viewBox="0 0 80 80" fill="none" xmlns="http://www.w3.org/2000/svg">
<g clip-path="url(#clip0_140_408)">
<path d="M13.2925 71.0829C13.0021 70.7922 12.5989 70.6251 12.188 70.6251C11.7771 70.6251 11.3739 70.7922 11.0833 71.0829C10.7927 71.3737 10.6255 71.7767 10.6255 72.1876C10.6255 72.5986 10.7925 73.0017 11.0833 73.2922C11.3739 73.5828 11.7771 73.7501 12.188 73.7501C12.5989 73.7501 13.0021 73.5829 13.2925 73.2922C13.5831 73.0017 13.7505 72.5986 13.7505 72.1876C13.7505 71.7767 13.5833 71.3736 13.2925 71.0829ZM73.3631 28.584C73.0697 28.2918 72.6726 28.1272 72.2585 28.1262C71.8475 28.1262 71.4444 28.2933 71.1538 28.584C70.8633 28.8747 70.696 29.2778 70.696 29.6887C70.696 30.0997 70.8631 30.5028 71.1538 30.7933C71.4474 31.0852 71.8443 31.2498 72.2585 31.2512C72.671 31.2512 73.0725 31.084 73.3631 30.7933C73.6552 30.5028 73.8224 30.0997 73.8224 29.6887C73.8224 29.2778 73.6552 28.8747 73.3631 28.584Z" fill="white"/>
<path d="M79.5413 0.457656C79.2481 0.16464 78.8506 2.57043e-05 78.4361 0L39.9996 0.00203125C39.1368 0.00203125 38.4372 0.701719 38.4372 1.56453V6.03281L23.6264 10.0014C22.7929 10.2248 22.2982 11.0816 22.5216 11.915L30.1977 40.5622L23.5572 47.2027C22.7121 45.9686 21.293 45.157 19.6879 45.157H4.68832C2.10363 45.157 0.000976562 47.2598 0.000976562 49.8444V75.3125C0.000976562 77.8972 2.10363 80 4.68832 80H19.688C21.8838 80 23.731 78.4819 24.2372 76.4406L26.095 78.0608C27.5289 79.3113 29.3671 80.0003 31.2697 80.0002H78.4364C79.2993 80.0002 79.9989 79.3005 79.9989 78.4377V1.5625C79.9988 1.14814 79.8342 0.750775 79.5413 0.457656ZM21.2502 75.3127C21.2502 76.1741 20.5493 76.8752 19.6877 76.8752H4.68816C3.8266 76.8752 3.12566 76.1742 3.12566 75.3127V49.8445C3.12566 48.983 3.8266 48.282 4.68816 48.282H10.6255V66.2813C10.6255 67.1441 11.3252 67.8438 12.188 67.8438C13.0508 67.8438 13.7505 67.1441 13.7505 66.2813V48.282H19.6879C20.5494 48.282 21.2504 48.983 21.2504 49.8445V75.3127H21.2502ZM25.9444 12.6155L38.4372 9.26797V15.0578L37.39 15.3384C37.1918 15.3915 37.006 15.4831 36.8432 15.608C36.6804 15.7329 36.5437 15.8886 36.4411 16.0663C36.3385 16.244 36.272 16.4402 36.2452 16.6437C36.2184 16.8471 36.232 17.0538 36.2852 17.252C36.8857 19.4928 35.5511 21.8042 33.3104 22.4047C33.1119 22.4578 32.9258 22.5496 32.7629 22.6747C32.5999 22.7999 32.4632 22.9559 32.3607 23.134C32.2581 23.312 32.1917 23.5086 32.1652 23.7123C32.1387 23.9161 32.1527 24.1231 32.2063 24.3214L38.2968 46.8742H35.1608L33.5447 40.5517C33.4942 40.3537 33.4052 40.1675 33.2829 40.0037L25.9444 12.6155ZM38.4372 22.2233V35.4078L35.5874 24.8555C36.7779 24.2408 37.7521 23.3211 38.4372 22.2233ZM60.8847 76.875H31.2694C30.122 76.8751 29.0133 76.4596 28.1485 75.7055L24.3752 72.4147V50.8042L31.1968 43.9827L32.4339 48.8233C32.5199 49.1595 32.7153 49.4575 32.9894 49.6704C33.2635 49.8832 33.6007 49.9987 33.9477 49.9988L64.6671 50.0006C65.8733 50.0006 66.8546 50.9819 66.8546 52.1881C66.8546 53.3944 65.8733 54.3756 64.6671 54.3756H48.9264C48.0636 54.3756 47.3639 55.0753 47.3639 55.9381C47.3639 56.8009 48.0636 57.5006 48.9264 57.5006H69.5577C70.7639 57.5006 71.7452 58.4819 71.7452 59.6881C71.7452 60.8944 70.7639 61.8756 69.5577 61.8756H48.9264C48.0636 61.8756 47.3639 62.5753 47.3639 63.4381C47.3639 64.3009 48.0636 65.0006 48.9264 65.0006H66.2144C67.4207 65.0006 68.4019 65.9819 68.4019 67.1881C68.4019 68.3944 67.4207 69.3756 66.2144 69.3756H48.9264C48.0636 69.3756 47.3639 70.0753 47.3639 70.9381C47.3639 71.8009 48.0636 72.5006 48.9264 72.5006H60.8847C62.091 72.5006 63.0722 73.4819 63.0722 74.6881C63.0721 75.8937 62.0908 76.875 60.8847 76.875ZM76.8739 76.875H65.7239C66.0269 76.2073 66.1971 75.4672 66.1971 74.6875C66.1971 73.9078 66.0269 73.1677 65.7239 72.5H66.2144C69.1436 72.5 71.5268 70.1169 71.5268 67.1877C71.5274 66.3619 71.3342 65.5475 70.9629 64.81C73.2122 64.1922 74.8699 62.1305 74.8699 59.6878C74.8711 58.5473 74.5032 57.4371 73.8213 56.523V36.7198C73.8213 35.857 73.1216 35.1573 72.2588 35.1573C71.396 35.1573 70.6963 35.857 70.6963 36.7198V54.4998C70.3222 54.4175 69.9404 54.3759 69.5574 54.3756H69.5061C69.8184 53.6886 69.9797 52.9427 69.9793 52.1881C69.9793 49.2587 67.5961 46.8758 64.6669 46.8758H62.1552C64.8222 45.732 66.6954 43.0811 66.6954 40C66.6954 35.8767 63.341 32.5222 59.2177 32.5222C55.0946 32.5222 51.74 35.8767 51.74 40C51.74 43.0811 53.6133 45.732 56.2802 46.8758H47.7391V17.1661C50.5304 16.5578 52.7329 14.3555 53.341 11.5641H65.0943C65.7024 14.3555 67.9049 16.5578 70.6961 17.1661V22.0239C70.6961 22.8867 71.3958 23.5864 72.2586 23.5864C73.1214 23.5864 73.8211 22.8867 73.8211 22.0239V15.7711C73.8211 14.9083 73.1214 14.2086 72.2586 14.2086C69.9388 14.2086 68.0518 12.3213 68.0518 10.0016C68.0518 9.13875 67.3521 8.43906 66.4893 8.43906H51.9461C51.0833 8.43906 50.3836 9.13875 50.3836 10.0016C50.3836 12.3214 48.4964 14.2086 46.1768 14.2086C45.3139 14.2086 44.6143 14.9083 44.6143 15.7711V46.8756H41.5624V3.12672L76.8739 3.125V76.875ZM59.218 44.3528C56.8179 44.3528 54.8654 42.4002 54.8654 40.0002C54.8654 37.6002 56.818 35.6473 59.218 35.6473C61.618 35.6473 63.5707 37.6 63.5707 40C63.5707 42.4 61.6182 44.3528 59.218 44.3528Z" fill="white"/>
</g>
<defs>
<clipPath id="clip0_140_408">
<rect width="80" height="80" fill="white"/>
</clipPath>
</defs>
</svg>
