<svg width="80" height="80" viewBox="0 0 80 80" fill="none" xmlns="http://www.w3.org/2000/svg">
<g clip-path="url(#clip0_54_3206)">
<path d="M76 46.4H74.8392C74.4405 42.7433 72.7068 39.3623 69.9702 36.9045C67.2335 34.4467 63.6863 33.0849 60.008 33.08C58.1677 33.0816 56.344 33.4278 54.6312 34.1008H25.3688C23.656 33.4278 21.8323 33.0816 19.992 33.08C16.3137 33.0849 12.7665 34.4467 10.0298 36.9045C7.29317 39.3623 5.55947 42.7433 5.16079 46.4H3.99999C3.57565 46.4 3.16868 46.5686 2.86862 46.8686C2.56856 47.1687 2.39999 47.5757 2.39999 48C2.39999 48.4243 2.56856 48.8313 2.86862 49.1314C3.16868 49.4314 3.57565 49.6 3.99999 49.6H5.16079C5.56928 53.3967 7.41813 56.8923 10.3266 59.3667C13.235 61.8412 16.9816 63.1061 20.7947 62.901C24.6079 62.696 28.1972 61.0365 30.8235 58.2644C33.4498 55.4923 34.9131 51.8186 34.912 48C34.912 47.64 34.8992 47.28 34.8736 46.9248C36.4838 46.194 38.2317 45.816 40 45.816C41.7683 45.816 43.5162 46.194 45.1264 46.9248C45.1008 47.2808 45.088 47.64 45.088 48C45.0869 51.8186 46.5502 55.4923 49.1765 58.2644C51.8028 61.0365 55.3921 62.696 59.2052 62.901C63.0184 63.1061 66.765 61.8412 69.6734 59.3667C72.5819 56.8923 74.4307 53.3967 74.8392 49.6H76C76.4243 49.6 76.8313 49.4314 77.1314 49.1314C77.4314 48.8313 77.6 48.4243 77.6 48C77.6 47.5757 77.4314 47.1687 77.1314 46.8686C76.8313 46.5686 76.4243 46.4 76 46.4ZM30.3952 53.3992C29.1094 55.8779 26.9809 57.8162 24.3929 58.865C21.805 59.9138 18.9276 60.0043 16.2789 59.1202C13.6302 58.236 11.3841 56.4353 9.94508 54.0423C8.50603 51.6493 7.96856 48.8211 8.42944 46.067C8.89031 43.3129 10.3192 40.8138 12.459 39.0197C14.5987 37.2255 17.3087 36.2542 20.1009 36.2805C22.8932 36.3069 25.5843 37.3292 27.6898 39.1635C29.7953 40.9977 31.1768 43.5233 31.5856 46.2856C31.9465 48.723 31.53 51.2121 30.3952 53.3992ZM40 42.616C38.0361 42.606 36.0886 42.9744 34.264 43.7008C33.5243 41.2671 32.173 39.0636 30.3392 37.3008H49.66C47.8263 39.0635 46.4753 41.2671 45.736 43.7008C43.9113 42.9744 41.9639 42.6061 40 42.616ZM60.008 59.72C57.8591 59.725 55.7504 59.1371 53.9141 58.0209C52.0778 56.9047 50.585 55.3035 49.6 53.3936C48.4667 51.2063 48.0516 48.7175 48.4136 46.2808C48.7428 44.0606 49.7027 41.9816 51.1791 40.2909C52.6555 38.6003 54.5863 37.3692 56.7419 36.7439C58.8976 36.1187 61.1875 36.1256 63.3394 36.7638C65.4912 37.402 67.4146 38.6447 68.8808 40.3442C70.3469 42.0437 71.2943 44.1284 71.6102 46.3506C71.926 48.5728 71.5972 50.8389 70.6627 52.8796C69.7282 54.9204 68.2273 56.6498 66.3385 57.8624C64.4498 59.075 62.2525 59.7198 60.008 59.72Z" fill="white"/>
<path d="M76 13.32H74.8392C74.4405 9.66333 72.7068 6.2823 69.9702 3.82449C67.2335 1.36669 63.6863 0.00490739 60.008 -1.52588e-05C58.1677 0.001567 56.344 0.347802 54.6312 1.02078H25.3688C23.656 0.347802 21.8323 0.001567 19.992 -1.52588e-05C16.3137 0.00490739 12.7665 1.36669 10.0298 3.82449C7.29317 6.2823 5.55947 9.66333 5.16079 13.32H3.99999C3.57565 13.32 3.16868 13.4886 2.86862 13.7886C2.56856 14.0887 2.39999 14.4956 2.39999 14.92C2.39999 15.3443 2.56856 15.7513 2.86862 16.0514C3.16868 16.3514 3.57565 16.52 3.99999 16.52H5.16079C5.56928 20.3167 7.41813 23.8122 10.3266 26.2867C13.235 28.7611 16.9816 30.0261 20.7947 29.821C24.6079 29.616 28.1972 27.9565 30.8235 25.1844C33.4498 22.4123 34.9131 18.7386 34.912 14.92C34.912 14.56 34.8992 14.2 34.8736 13.8448C36.4838 13.114 38.2317 12.736 40 12.736C41.7683 12.736 43.5162 13.114 45.1264 13.8448C45.1008 14.2008 45.088 14.56 45.088 14.92C45.0869 18.7386 46.5502 22.4123 49.1765 25.1844C51.8028 27.9565 55.3921 29.616 59.2052 29.821C63.0184 30.0261 66.765 28.7611 69.6734 26.2867C72.5819 23.8122 74.4307 20.3167 74.8392 16.52H76C76.4243 16.52 76.8313 16.3514 77.1314 16.0514C77.4314 15.7513 77.6 15.3443 77.6 14.92C77.6 14.4956 77.4314 14.0887 77.1314 13.7886C76.8313 13.4886 76.4243 13.32 76 13.32ZM30.3952 20.3192C29.1094 22.7979 26.9809 24.7362 24.3929 25.785C21.805 26.8338 18.9276 26.9243 16.2789 26.0401C13.6302 25.156 11.3841 23.3553 9.94508 20.9623C8.50603 18.5692 7.96856 15.7411 8.42944 12.987C8.89031 10.2329 10.3192 7.73382 12.459 5.93966C14.5987 4.14551 17.3087 3.17417 20.1009 3.20053C22.8932 3.22689 25.5843 4.24921 27.6898 6.08344C29.7953 7.91766 31.1768 10.4433 31.5856 13.2056C31.9465 15.643 31.53 18.1321 30.3952 20.3192ZM40 9.53598C38.0361 9.52603 36.0886 9.89434 34.264 10.6208C33.5243 8.18705 32.173 5.98359 30.3392 4.22078H49.66C47.8263 5.98352 46.4753 8.18703 45.736 10.6208C43.9113 9.89441 41.9639 9.52611 40 9.53598ZM60.008 26.64C57.8591 26.645 55.7504 26.057 53.9141 24.9408C52.0778 23.8247 50.585 22.2235 49.6 20.3136C48.4667 18.1263 48.0516 15.6375 48.4136 13.2008C48.7428 10.9805 49.7027 8.90154 51.1791 7.21092C52.6555 5.5203 54.5863 4.28919 56.7419 3.66392C58.8976 3.03866 61.1875 3.04554 63.3394 3.68377C65.4912 4.32199 67.4146 5.5647 68.8808 7.26417C70.3469 8.96363 71.2943 11.0484 71.6102 13.2706C71.926 15.4927 71.5972 17.7589 70.6627 19.7996C69.7282 21.8403 68.2273 23.5698 66.3385 24.7824C64.4498 25.995 62.2525 26.6398 60.008 26.64Z" fill="white"/>
</g>
<defs>
<clipPath id="clip0_54_3206">
<rect width="80" height="80" fill="white"/>
</clipPath>
</defs>
</svg>
