<svg width="80" height="80" viewBox="0 0 80 80" fill="none" xmlns="http://www.w3.org/2000/svg">
<path d="M1.29624 72.8712C1.75768 74.9032 2.89844 76.7171 4.5301 78.0132C6.16176 79.3094 8.18671 80.0102 10.2705 79.9999H68.9952C71.0789 80.0102 73.1039 79.3094 74.7355 78.0132C76.3672 76.7171 77.508 74.9032 77.9694 72.8712L79.2367 67.3742C79.2757 67.2001 79.2753 67.0195 79.2354 66.8457C79.1956 66.6718 79.1174 66.509 79.0065 66.3693C78.8957 66.2296 78.7549 66.1164 78.5947 66.0381C78.4344 65.9598 78.2587 65.9183 78.0803 65.9167H75.5932V22.6851C75.5911 21.5304 75.1314 20.4235 74.3149 19.607C73.4984 18.7904 72.3915 18.3308 71.2367 18.3287H59.3001V15.8574H66.3655C67.5117 15.8502 68.6106 15.3988 69.4308 14.598C69.8369 14.1978 70.159 13.7205 70.378 13.1941C70.597 12.6677 70.7085 12.1028 70.706 11.5327V6.89108C70.7039 5.0641 69.9773 3.31254 68.6854 2.02067C67.3935 0.728792 65.6419 0.00209637 63.815 0H24.2903C23.1439 0.0020938 22.0451 0.458408 21.2345 1.269C20.4239 2.0796 19.9676 3.1784 19.9655 4.32475V18.3287H8.0289C6.87351 18.3287 5.76543 18.7877 4.94844 19.6047C4.13145 20.4216 3.67247 21.5297 3.67247 22.6851V65.9167H1.20119C1.02149 65.916 0.843918 65.9557 0.681679 66.033C0.51944 66.1103 0.376701 66.2231 0.264069 66.3631C0.151437 66.5032 0.0718069 66.6668 0.0310957 66.8418C-0.00961553 67.0168 -0.010361 67.1988 0.0289141 67.3742L1.29624 72.8712ZM68.3298 6.89108V11.5564C68.3299 11.8142 68.2789 12.0695 68.1796 12.3074C68.0804 12.5454 67.9349 12.7613 67.7516 12.9426C67.3819 13.3007 66.8881 13.5022 66.3734 13.5049H59.3001V6.89108C59.3001 5.69367 59.7758 4.5453 60.6225 3.6986C61.4692 2.85191 62.6176 2.37623 63.815 2.37623C65.0124 2.37623 66.1607 2.85191 67.0074 3.6986C67.8541 4.5453 68.3298 5.69367 68.3298 6.89108ZM22.3418 4.32475C22.3418 3.80797 22.547 3.31236 22.9125 2.94694C23.2779 2.58152 23.7735 2.37623 24.2903 2.37623H58.6427C57.5498 3.62641 56.9476 5.23057 56.9476 6.89108V52.095C56.9476 52.6118 56.7424 53.1074 56.3769 53.4728C56.0115 53.8382 55.5159 54.0435 54.9991 54.0435H24.2903C23.7735 54.0435 23.2779 53.8382 22.9125 53.4728C22.547 53.1074 22.3418 52.6118 22.3418 52.095V4.32475ZM24.2903 56.4197H54.9754C56.1217 56.4176 57.2205 55.9613 58.0311 55.1507C58.8417 54.3401 59.298 53.2413 59.3001 52.095V26.1861H67.6486V60.4356H11.617V26.1861H19.9655V52.095C19.9676 53.2413 20.4239 54.3401 21.2345 55.1507C22.0451 55.9613 23.1439 56.4176 24.2903 56.4197ZM6.07247 22.6851C6.07247 22.1599 6.2811 21.6563 6.65245 21.2849C7.02381 20.9135 7.52748 20.7049 8.05266 20.7049H19.9655V23.8099H10.4606C10.1455 23.8099 9.84327 23.935 9.62046 24.1579C9.39764 24.3807 9.27247 24.6829 9.27247 24.998V61.6237C9.27247 61.9388 9.39764 62.241 9.62046 62.4638C9.84327 62.6866 10.1455 62.8118 10.4606 62.8118H68.8684C69.1835 62.8118 69.4857 62.6866 69.7085 62.4638C69.9314 62.241 70.0565 61.9388 70.0565 61.6237V24.9663C70.0565 24.6512 69.9314 24.349 69.7085 24.1262C69.4857 23.9034 69.1835 23.7782 68.8684 23.7782H59.3635V20.7049H71.2367C71.7619 20.7049 72.2656 20.9135 72.6369 21.2849C73.0083 21.6563 73.2169 22.1599 73.2169 22.6851V65.9167H6.04871L6.07247 22.6851ZM50.8803 68.293L50.1595 69.8771C49.8981 70.4455 49.4795 70.9272 48.9532 71.2655C48.4269 71.6037 47.8149 71.7843 47.1892 71.786H32.0764C31.4508 71.7843 30.8387 71.6037 30.3124 71.2655C29.7861 70.9272 29.3675 70.4455 29.1061 69.8771L28.3853 68.293H50.8803ZM4.86059 68.293H25.7715L26.9596 70.8593C27.4088 71.8437 28.1313 72.6783 29.0413 73.2639C29.9512 73.8495 31.0102 74.1613 32.0922 74.1623H47.1892C48.2684 74.1573 49.3236 73.8436 50.2302 73.2584C51.1369 72.6731 51.8572 71.8407 52.3061 70.8593L53.4942 68.293H76.5753L75.6565 72.3405C75.3187 73.8532 74.474 75.205 73.2624 76.1717C72.0508 77.1384 70.5451 77.6619 68.9952 77.6553H10.2705C8.72051 77.6619 7.21487 77.1384 6.00327 76.1717C4.79166 75.205 3.94691 73.8532 3.60911 72.3405L2.6903 68.293H4.86059ZM64.7338 74.1623H61.1536V71.786H64.7338V74.1623ZM58.6665 74.1623H55.0863V71.786H58.6427L58.6665 74.1623ZM70.8011 74.1623H67.2209V71.786H70.8011V74.1623ZM39.6328 30.5108C42.118 30.5108 44.5474 29.7742 46.614 28.394C48.6807 27.0138 50.2918 25.052 51.244 22.7565C52.1961 20.4609 52.4464 17.9347 51.9633 15.497C51.4802 13.0592 50.2853 10.8194 48.5297 9.06044C46.7741 7.30151 44.5365 6.10243 42.0997 5.61473C39.6629 5.12702 37.1361 5.37257 34.8388 6.32034C32.5415 7.26811 30.5766 8.87558 29.1926 10.9396C27.8085 13.0037 27.0672 15.4317 27.0625 17.9168C27.0604 21.2535 28.3834 24.4544 30.7405 26.8161C33.0977 29.1777 36.2961 30.5066 39.6328 30.5108ZM39.6328 7.74652C41.65 7.74653 43.6219 8.345 45.2988 9.46619C46.9757 10.5874 48.2823 12.1809 49.0531 14.045C49.824 15.9091 50.0245 17.96 49.6292 19.9381C49.2339 21.9162 48.2607 23.7325 46.8327 25.1573C45.4046 26.582 43.586 27.551 41.607 27.9416C39.628 28.3323 37.5775 28.127 35.7152 27.3518C33.8529 26.5766 32.2625 25.2663 31.1452 23.5868C30.0279 21.9072 29.4341 19.934 29.4388 17.9168C29.443 15.2145 30.5183 12.624 32.4292 10.7132C34.34 8.80231 36.9305 7.72695 39.6328 7.72276V7.74652ZM38.2388 21.8614L34.7536 18.202L36.4645 16.5624L39.0071 19.2317L44.2189 12.5465L46.0962 14.0039L40.0368 21.798C39.9327 21.9342 39.8001 22.0459 39.6482 22.1253C39.4963 22.2046 39.3288 22.2497 39.1576 22.2574H39.1021C38.9388 22.2538 38.7779 22.2169 38.6294 22.1488C38.481 22.0806 38.348 21.9828 38.2388 21.8614ZM31.1101 40.4514H48.1714C49.2407 40.4514 50.2662 40.0267 51.0222 39.2706C51.7783 38.5145 52.2031 37.489 52.2031 36.4197C52.2031 35.3505 51.7783 34.325 51.0222 33.5689C50.2662 32.8128 49.2407 32.3881 48.1714 32.3881H31.0942C30.0249 32.3881 28.9995 32.8128 28.2434 33.5689C27.4873 34.325 27.0625 35.3505 27.0625 36.4197C27.0625 37.489 27.4873 38.5145 28.2434 39.2706C28.9995 40.0267 30.0249 40.4514 31.0942 40.4514H31.1101ZM31.1101 34.7643H48.1714C48.6105 34.7643 49.0315 34.9387 49.342 35.2492C49.6524 35.5596 49.8269 35.9807 49.8269 36.4197C49.8269 36.8588 49.6524 37.2799 49.342 37.5903C49.0315 37.9008 48.6105 38.0752 48.1714 38.0752H31.0942C30.6552 38.0752 30.2341 37.9008 29.9236 37.5903C29.6132 37.2799 29.4388 36.8588 29.4388 36.4197C29.4388 35.9807 29.6132 35.5596 29.9236 35.2492C30.2341 34.9387 30.6552 34.7643 31.0942 34.7643H31.1101ZM31.1101 51.0732H48.1714C48.7009 51.0732 49.2251 50.9689 49.7143 50.7663C50.2034 50.5637 50.6479 50.2667 51.0222 49.8923C51.3966 49.518 51.6936 49.0735 51.8962 48.5844C52.0988 48.0952 52.2031 47.571 52.2031 47.0415C52.2031 46.5121 52.0988 45.9878 51.8962 45.4987C51.6936 45.0095 51.3966 44.5651 51.0222 44.1907C50.6479 43.8163 50.2034 43.5193 49.7143 43.3167C49.2251 43.1141 48.7009 43.0098 48.1714 43.0098H31.0942C30.0249 43.0098 28.9995 43.4346 28.2434 44.1907C27.4873 44.9468 27.0625 45.9723 27.0625 47.0415C27.0625 48.1108 27.4873 49.1363 28.2434 49.8923C28.9995 50.6484 30.0249 51.0732 31.0942 51.0732H31.1101ZM31.1101 45.3861H48.1714C48.6105 45.3861 49.0315 45.5605 49.342 45.8709C49.6524 46.1814 49.8269 46.6025 49.8269 47.0415C49.8269 47.4806 49.6524 47.9016 49.342 48.2121C49.0315 48.5225 48.6105 48.697 48.1714 48.697H31.0942C30.6552 48.697 30.2341 48.5225 29.9236 48.2121C29.6132 47.9016 29.4388 47.4806 29.4388 47.0415C29.4388 46.6025 29.6132 46.1814 29.9236 45.8709C30.2341 45.5605 30.6552 45.3861 31.0942 45.3861H31.1101Z" fill="white"/>
</svg>
