<svg width="80" height="80" viewBox="0 0 80 80" fill="none" xmlns="http://www.w3.org/2000/svg">
<path d="M76 38.4H74.8392C74.4405 34.7433 72.7068 31.3623 69.9702 28.9045C67.2335 26.4467 63.6863 25.0849 60.008 25.08C58.1677 25.0816 56.344 25.4278 54.6312 26.1008H25.3688C23.656 25.4278 21.8323 25.0816 19.992 25.08C16.3137 25.0849 12.7665 26.4467 10.0299 28.9045C7.2932 31.3623 5.5595 34.7433 5.16082 38.4H4.00002C3.57568 38.4 3.16871 38.5686 2.86865 38.8686C2.5686 39.1687 2.40002 39.5757 2.40002 40C2.40002 40.4243 2.5686 40.8313 2.86865 41.1314C3.16871 41.4314 3.57568 41.6 4.00002 41.6H5.16082C5.56931 45.3967 7.41816 48.8923 10.3266 51.3667C13.2351 53.8412 16.9816 55.1061 20.7948 54.901C24.6079 54.696 28.1972 53.0365 30.8235 50.2644C33.4498 47.4923 34.9131 43.8186 34.912 40C34.912 39.64 34.8992 39.28 34.8736 38.9248C36.4839 38.194 38.2317 37.816 40 37.816C41.7683 37.816 43.5162 38.194 45.1264 38.9248C45.1008 39.2808 45.088 39.64 45.088 40C45.087 43.8186 46.5503 47.4923 49.1765 50.2644C51.8028 53.0365 55.3922 54.696 59.2053 54.901C63.0184 55.1061 66.765 53.8412 69.6734 51.3667C72.5819 48.8923 74.4307 45.3967 74.8392 41.6H76C76.4244 41.6 76.8313 41.4314 77.1314 41.1314C77.4315 40.8313 77.6 40.4243 77.6 40C77.6 39.5757 77.4315 39.1687 77.1314 38.8686C76.8313 38.5686 76.4244 38.4 76 38.4ZM30.3952 45.3992C29.1094 47.8779 26.9809 49.8162 24.3929 50.865C21.805 51.9138 18.9277 52.0043 16.2789 51.1202C13.6302 50.236 11.3841 48.4353 9.94511 46.0423C8.50606 43.6493 7.9686 40.8211 8.42947 38.067C8.89034 35.3129 10.3193 32.8138 12.459 31.0197C14.5987 29.2255 17.3087 28.2542 20.101 28.2805C22.8932 28.3069 25.5844 29.3292 27.6898 31.1635C29.7953 32.9977 31.1768 35.5233 31.5856 38.2856C31.9466 40.723 31.53 43.2121 30.3952 45.3992ZM40 34.616C38.0361 34.606 36.0887 34.9744 34.264 35.7008C33.5243 33.2671 32.173 31.0636 30.3392 29.3008H49.66C47.8263 31.0635 46.4753 33.2671 45.736 35.7008C43.9114 34.9744 41.9639 34.6061 40 34.616ZM60.008 51.72C57.8591 51.725 55.7504 51.1371 53.9141 50.0209C52.0778 48.9047 50.585 47.3035 49.6 45.3936C48.4668 43.2063 48.0516 40.7175 48.4136 38.2808C48.7429 36.0606 49.7027 33.9816 51.1791 32.2909C52.6555 30.6003 54.5863 29.3692 56.742 28.7439C58.8976 28.1187 61.1875 28.1256 63.3394 28.7638C65.4913 29.402 67.4146 30.6447 68.8808 32.3442C70.347 34.0437 71.2943 36.1284 71.6102 38.3506C71.9261 40.5728 71.5972 42.8389 70.6627 44.8796C69.7282 46.9204 68.2273 48.6498 66.3386 49.8624C64.4498 51.075 62.2525 51.7198 60.008 51.72Z" fill="white"/>
</svg>
