<svg width="80" height="80" viewBox="0 0 80 80" fill="none" xmlns="http://www.w3.org/2000/svg">
<g clip-path="url(#clip0_148_342)">
<path d="M18.9884 21.6547H41.9823C43.4975 21.6547 43.4975 19.3109 41.9823 19.3109H18.9884C17.4733 19.3109 17.4733 21.6547 18.9884 21.6547ZM18.9884 30.2524H36.6698C38.185 30.2524 38.185 27.9086 36.6698 27.9086H18.9884C17.4733 27.9086 17.4733 30.2524 18.9884 30.2524ZM18.9884 38.85H34.1698C35.685 38.85 35.685 36.5063 34.1698 36.5063H18.9884C17.4733 36.5063 17.4733 38.85 18.9884 38.85ZM40.5797 67.5598H39.8033V56.1069C39.8033 55.7961 39.6798 55.498 39.46 55.2782C39.2403 55.0585 38.9422 54.935 38.6314 54.935H33.9286V50.8041C33.9286 50.4933 33.8051 50.1952 33.5853 49.9754C33.3656 49.7557 33.0675 49.6322 32.7567 49.6322H26.8962C26.5854 49.6322 26.2874 49.7557 26.0676 49.9754C25.8478 50.1952 25.7244 50.4933 25.7244 50.8041V57.9348H21.0308C20.72 57.9348 20.4219 58.0583 20.2021 58.2781C19.9824 58.4979 19.8589 58.7959 19.8589 59.1067V67.5598H19.0825C18.4351 67.5598 17.9106 68.0845 17.9106 68.7317C17.9106 69.3789 18.4351 69.9036 19.0825 69.9036H40.5795C41.2269 69.9036 41.7514 69.3789 41.7514 68.7317C41.7514 68.0845 41.2269 67.5598 40.5797 67.5598ZM22.2028 67.5598V60.2786H25.7197V67.5598H22.2028ZM28.0683 67.5598V51.9759H31.585V67.5598H28.0683ZM33.9426 67.5598V57.2788H37.4595V67.5598H33.9426Z" fill="white"/>
<path d="M79.9905 36.5005C79.8378 31.5673 77.8286 26.9252 74.3325 23.4291C72.655 21.7516 70.7431 20.4483 68.7017 19.5173C68.6321 19.4769 68.5583 19.4438 68.4817 19.4187C65.8416 18.2545 62.9927 17.7083 60.1566 17.7814V11.3248C60.1566 9.82391 58.9358 8.60281 57.435 8.60281H55.7449V7.13969C55.7449 5.63875 54.5241 4.41766 53.0233 4.41766H51.3285V2.72203C51.3286 1.22109 50.1077 0 48.6071 0H2.72205C1.22127 0 0.000488281 1.22109 0.000488281 2.72203V68.6753C0.000488281 70.1763 1.22127 71.3973 2.72205 71.3973H4.41689V73.093C4.41689 74.5939 5.63768 75.815 7.13361 75.815L8.82877 75.8219V77.2781C8.82877 78.7791 10.0496 80.0002 11.5503 80.0002H48.1564C48.4628 80.0002 48.766 79.8752 48.9831 79.6589L59.8117 68.8816C59.9211 68.7727 60.0079 68.6432 60.0672 68.5007C60.1264 68.3581 60.1569 68.2053 60.1569 68.0509V56.4331C60.3149 56.437 60.4728 56.4408 60.6308 56.4408C63.9339 56.4408 67.223 55.5966 70.0997 53.9847C71.4217 53.2441 70.276 51.1998 68.9541 51.94C62.6974 55.4461 54.8669 54.5822 49.5035 49.9158L61.0114 38.4078L76.7442 42.5769C76.0337 44.6794 74.9142 46.6206 73.4503 48.2888C72.4516 49.4281 74.2138 50.9731 75.2127 49.8339C78.4455 46.1463 80.1422 41.4111 79.9905 36.5005ZM66.5453 21.1633L59.6786 36.4255L47.8439 48.2603C42.0306 41.5927 42.2964 31.4333 48.6435 25.0863C53.4753 20.2544 60.5169 18.9473 66.5453 21.1633ZM7.13814 73.4711C7.03794 73.4709 6.94191 73.4309 6.87111 73.36C6.80031 73.2891 6.76053 73.193 6.76049 73.0928V7.13969C6.76053 7.03948 6.80031 6.94338 6.87111 6.87247C6.94191 6.80155 7.03794 6.76161 7.13814 6.76141H15.3128C16.828 6.76141 16.828 4.41766 15.3128 4.41766H7.13814C5.63752 4.41766 4.41674 5.63875 4.41674 7.13969V69.0534H2.72205C2.62182 69.0533 2.52575 69.0134 2.45491 68.9424C2.38408 68.8715 2.34428 68.7754 2.34424 68.6752V2.72203C2.34428 2.6218 2.38408 2.52568 2.45491 2.45476C2.52575 2.38384 2.62182 2.34392 2.72205 2.34375H48.6071C48.7073 2.34392 48.8034 2.38384 48.8742 2.45476C48.945 2.52568 48.9848 2.6218 48.9849 2.72203V4.41781H21.8755C20.3603 4.41781 20.3603 6.76156 21.8755 6.76156H53.0235C53.1237 6.76173 53.2198 6.80165 53.2906 6.87257C53.3614 6.94349 53.4012 7.03961 53.4013 7.13984V8.60297H11.5502C10.0496 8.60297 8.82861 9.82406 8.82861 11.325V73.4781L7.13814 73.4711ZM11.1724 77.278V11.3248C11.1724 11.2246 11.2122 11.1285 11.283 11.0576C11.3539 10.9867 11.4499 10.9467 11.5502 10.9466H57.4352C57.5354 10.9467 57.6315 10.9867 57.7023 11.0576C57.7731 11.1285 57.8129 11.2246 57.813 11.3248V17.9841C53.8481 18.5694 50.0314 20.3839 46.9861 23.4292C39.4467 30.9686 39.4467 43.2361 46.9861 50.7756C49.9516 53.7409 53.6899 55.62 57.813 56.2297V66.7784H49.706C48.2053 66.7784 46.9844 67.9995 46.9844 69.5005V77.6562H11.5502C11.4499 77.6561 11.3539 77.6162 11.283 77.5452C11.2122 77.4743 11.1724 77.3782 11.1724 77.278ZM49.3281 75.9898V69.5005C49.3282 69.4002 49.368 69.3041 49.4388 69.2332C49.5096 69.1623 49.6057 69.1224 49.706 69.1222H56.1647L49.3281 75.9898ZM62.2947 36.3233L68.6838 22.1227C70.1527 22.9089 71.4976 23.9075 72.675 25.0864C76.7824 29.1939 78.3592 34.9464 77.3394 40.3102L62.2947 36.3233Z" fill="white"/>
</g>
<defs>
<clipPath id="clip0_148_342">
<rect width="80" height="80" fill="white"/>
</clipPath>
</defs>
</svg>
