<svg width="80" height="80" viewBox="0 0 80 80" fill="none" xmlns="http://www.w3.org/2000/svg">
<path d="M40 50C45.5137 50 50 45.5137 50 40C50 34.4863 45.5137 30 40 30C34.4863 30 30 34.4863 30 40C30 45.5137 34.4863 50 40 50ZM40 32.5C44.1363 32.5 47.5 35.8637 47.5 40C47.5 44.1363 44.1363 47.5 40 47.5C35.8637 47.5 32.5 44.1363 32.5 40C32.5 35.8637 35.8637 32.5 40 32.5Z" fill="white"/>
<path d="M40 45C42.7575 45 45 42.7575 45 40C45 37.2425 42.7575 35 40 35C37.2425 35 35 37.2425 35 40C35 42.7575 37.2425 45 40 45ZM40 37.5C41.3788 37.5 42.5 38.6212 42.5 40C42.5 41.3788 41.3788 42.5 40 42.5C38.6212 42.5 37.5 41.3788 37.5 40C37.5 38.6212 38.6212 37.5 40 37.5Z" fill="white"/>
<path d="M31.7875 54.7675L33.9725 53.7225C34.1675 53.8088 34.3638 53.8912 34.5613 53.9675L35.365 56.25H44.6338L45.44 53.9675C45.6363 53.89 45.8325 53.8088 46.0288 53.7225L48.2137 54.7675L54.7687 48.2125L53.7238 46.0275C53.81 45.8325 53.8925 45.6363 53.9687 45.4388L56.25 44.635V35.3662L53.9675 34.56C53.8896 34.3622 53.8079 34.1659 53.7225 33.9713L54.7675 31.7863L48.2125 25.2312L46.0275 26.2762C45.8332 26.1899 45.6369 26.1082 45.4388 26.0313L44.635 23.75H35.3662L34.56 26.0325C34.3638 26.11 34.1675 26.1912 33.9713 26.2775L31.7863 25.2325L25.2312 31.7875L26.2762 33.9725C26.1899 34.1668 26.1082 34.3631 26.0313 34.5613L23.75 35.365V44.6338L26.0325 45.44C26.11 45.6363 26.1912 45.8325 26.2775 46.0288L25.2325 48.2137L31.7875 54.7675ZM26.25 42.865V37.1338L27.99 36.52L28.1862 35.9475C28.35 35.4687 28.5513 34.9863 28.7838 34.5138L29.05 33.97L28.2525 32.3025L32.305 28.25L33.9725 29.0475L34.5163 28.7812C34.9813 28.5524 35.4601 28.3529 35.95 28.1838L36.5225 27.9875L37.135 26.25H42.8662L43.48 27.99L44.0525 28.1862C44.5313 28.35 45.0137 28.5513 45.4862 28.7838L46.03 29.05L47.6975 28.2525L51.75 32.305L50.9525 33.9725L51.2187 34.5163C51.4512 34.9888 51.6512 35.4713 51.8162 35.95L52.0125 36.5225L53.75 37.135V42.8662L52.01 43.48L51.8138 44.0525C51.6452 44.5426 51.4456 45.0215 51.2162 45.4862L50.95 46.03L51.7475 47.6975L47.695 51.75L46.0275 50.9525L45.4838 51.2187C45.0187 51.4476 44.5399 51.6471 44.05 51.8162L43.4775 52.0125L42.865 53.75H37.1338L36.52 52.01L35.9475 51.8138C35.4574 51.6452 34.9785 51.4456 34.5138 51.2162L33.97 50.95L32.3025 51.7475L28.25 47.695L29.0475 46.0275L28.7812 45.4838C28.5524 45.0187 28.3529 44.5399 28.1838 44.05L27.9875 43.4775L26.25 42.865ZM17.5 58.75H5C2.9325 58.75 1.25 60.4325 1.25 62.5V75C1.25 77.0675 2.9325 78.75 5 78.75H17.5C19.5675 78.75 21.25 77.0675 21.25 75V62.5C21.25 60.4325 19.5675 58.75 17.5 58.75ZM18.75 75C18.75 75.6887 18.1887 76.25 17.5 76.25H5C4.31125 76.25 3.75 75.6887 3.75 75V62.5C3.75 61.8113 4.31125 61.25 5 61.25H17.5C18.1887 61.25 18.75 61.8113 18.75 62.5V75ZM75 30H62.5C60.4325 30 58.75 31.6825 58.75 33.75V46.25C58.75 48.3175 60.4325 50 62.5 50H75C77.0675 50 78.75 48.3175 78.75 46.25V33.75C78.75 31.6825 77.0675 30 75 30ZM76.25 46.25C76.25 46.9387 75.6887 47.5 75 47.5H62.5C61.8113 47.5 61.25 46.9387 61.25 46.25V33.75C61.25 33.0613 61.8113 32.5 62.5 32.5H75C75.6887 32.5 76.25 33.0613 76.25 33.75V46.25ZM12.5 21.25H25C27.0675 21.25 28.75 19.5675 28.75 17.5V5C28.75 2.9325 27.0675 1.25 25 1.25H12.5C10.4325 1.25 8.75 2.9325 8.75 5V17.5C8.75 19.5675 10.4325 21.25 12.5 21.25ZM11.25 5C11.25 4.31125 11.8113 3.75 12.5 3.75H25C25.6887 3.75 26.25 4.31125 26.25 5V17.5C26.25 18.1887 25.6887 18.75 25 18.75H12.5C11.8113 18.75 11.25 18.1887 11.25 17.5V5Z" fill="white"/>
<path d="M8.75023 70.7325L7.13398 69.1162L5.36648 70.8837L8.75023 74.2675L17.134 65.8837L15.3665 64.1162L8.75023 70.7325ZM24.634 8.38371L22.8665 6.61621L16.2502 13.2325L14.634 11.6162L12.8665 13.3837L16.2502 16.7675L24.634 8.38371ZM66.2502 41.9825L64.634 40.3662L62.8665 42.1337L66.2502 45.5175L74.634 37.1337L72.8665 35.3662L66.2502 41.9825ZM58.4465 56.2875L59.0527 58.7125L66.1577 56.9362C60.419 65.8262 50.649 71.25 40.0002 71.25C35.4265 71.25 31.019 70.285 26.9015 68.3812L25.8527 70.65C30.2857 72.7038 35.1146 73.7619 40.0002 73.75C51.324 73.75 61.724 68.075 67.959 58.745L68.7602 65.155L71.2402 64.845L69.8152 53.445L58.4465 56.2875ZM14.9665 45.29L12.5352 44.7087L11.0102 51.0912C9.51523 47.3912 8.75023 43.6725 8.75023 40C8.75023 35.3875 9.73148 30.9462 11.6665 26.7975L9.40023 25.74C7.31422 30.2038 6.23866 35.0728 6.25023 40C6.25023 43.9787 7.06898 47.9925 8.66898 51.9737L3.10398 48.905L1.89648 51.095L12.219 56.785L14.9665 45.29ZM41.944 11.46L37.879 8.74996H40.0002C45.7212 8.74072 51.3344 10.3057 56.2254 13.2735C61.1164 16.2413 65.0966 20.4975 67.7302 25.5762L69.9465 24.42C64.1052 13.2125 52.6302 6.24996 40.0002 6.24996H37.879L41.944 3.53996L40.5577 1.45996L31.4965 7.49996L40.5565 13.54L41.944 11.46Z" fill="white"/>
</svg>
